<?xml version="1.0" encoding="utf-8"?>
<!-- Generator: Adobe Illustrator 15.1.0, SVG Export Plug-In . SVG Version: 6.00 Build 0)  -->
<!DOCTYPE svg PUBLIC "-//W3C//DTD SVG 1.1//EN" "http://www.w3.org/Graphics/SVG/1.1/DTD/svg11.dtd">
<svg version="1.1"
	 id="svg2" xmlns:dc="http://purl.org/dc/elements/1.1/" xmlns:cc="http://creativecommons.org/ns#" xmlns:rdf="http://www.w3.org/1999/02/22-rdf-syntax-ns#" xmlns:svg="http://www.w3.org/2000/svg"
	 xmlns="http://www.w3.org/2000/svg" xmlns:xlink="http://www.w3.org/1999/xlink" x="0px" y="0px" width="170px"
	 height="40px" viewBox="371.147 567.277 653.691 189.425" enable-background="new 371.147 567.277 653.691 189.425"
	 xml:space="preserve">
<g id="g10" transform="matrix(1.3333333,0,0,-1.3333333,0,1333.3333)">
	<g id="g12">
		<g>
			<g id="g14">
				<g id="g20" transform="translate(395.7183,490)">
					<path id="path22" d="M24.745,13.499c0-39.245-31.815-71.061-71.06-71.061c-39.243,0-71.057,31.816-71.057,71.061
						c0,39.246,31.814,71.061,71.057,71.061C-7.07,84.56,24.745,52.745,24.745,13.499"/>
				</g>
				<g id="g24" transform="translate(336.7915,441.6465)">
					<path id="path26" fill="#FFFFFF" d="M24.746,13.499c0-5.763-5.033-10.433-11.239-10.433c-6.208,0-11.239,4.67-11.239,10.433
						s5.031,10.433,11.239,10.433C19.712,23.932,24.746,19.262,24.746,13.499"/>
				</g>
				<g id="g28" transform="translate(329.5454,476.8037)">
					<path id="path30" fill="#FFFFFF" d="M24.745,13.5c0.04,1.02-0.258,1.875-0.91,2.562c-0.653,0.686-1.69,1.044-3.092,1.046
						c-1.714,0-5.49-0.006-7.202-0.072c0.007-0.22,2.47-0.923,2.479-1.135c0.196-4.935,0.41-7.714,0.861-12.479
						c0.034-0.372-2.093-0.87-2.057-1.26c2.051,0.177,7.132,0.105,8.658,1.648c0.618,0.627,0.951,1.471,0.992,2.53
						C24.583,9.204,24.637,10.635,24.745,13.5 M26.831,68.455c0.041,1.059-0.425,1.933-1.414,2.608
						c-0.987,0.677-2.575,1.04-4.748,1.04c-2.519,0-9.922-0.526-12.569-0.905c0.045-0.62,3.967-0.929,4.011-1.542
						c1.139-15.776,2.151-29.402,3.49-44.647c0.041-0.463-2.818-0.927-2.777-1.393c1.784,0.069,6.062,0.083,7.845,0.083
						c1.538,0,2.67,0.306,3.412,0.952c0.743,0.646,1.143,1.475,1.182,2.493C25.787,40.916,26.308,54.685,26.831,68.455
						 M20.897,78.696c3.233-0.004,6.168-0.334,8.762-0.942c2.596-0.607,4.783-1.458,6.547-2.507c1.764-1.049,3.057-2.27,3.886-3.632
						c0.829-1.362,1.131-2.806,0.939-4.323C39.305,53.62,37.578,39.95,35.85,26.278c-0.215-1.714-0.848-3.054-1.86-4.044
						c-1.015-0.99-2.32-1.739-3.913-2.275c1.482-0.794,2.587-1.792,3.312-2.959c0.724-1.169,0.961-2.599,0.75-4.271
						C33.78,9.886,33.6,8.464,33.241,5.621c-0.394-3.116-1.768-5.473-4.075-7.017C24.693-4.387,14.58-3.828,10.543-4.283
						C10.152-4.329,9.844-4.247,9.62-4.037C9.395-3.828,9.258-3.548,9.214-3.199C5.875,23.237,2.537,49.673-0.805,76.109
						c-0.044,0.349,0.107,0.665,0.451,0.945c0.343,0.279,0.891,0.465,1.642,0.55C9.106,78.488,13.042,78.706,20.897,78.696"/>
				</g>
				<path id="path32" d="M451.568,479.341h-9.452v8.288h9.452V479.341z M451.568,495.592h-9.452v30.884h9.452V495.592z"/>
				<path id="path34" d="M469.598,479.341h-9.452v8.288h9.452V479.341z M469.598,495.592h-9.452v30.884h9.452V495.592z"/>
				<g id="g36" transform="translate(474.8979,483.0635)">
					<path id="path38" d="M24.743,13.499c0,3.41-0.502,6.113-1.505,8.109c-1.003,1.995-2.714,2.994-5.131,2.994
						c-1.468,0-2.71-0.306-3.722-0.921c-1.015-0.617-1.813-1.496-2.396-2.64V6.215c0.583-1.058,1.385-1.865,2.411-2.427
						c1.027-0.561,2.282-0.842,3.772-0.842c2.439,0,4.144,0.86,5.115,2.575c0.973,1.715,1.457,4.148,1.457,7.299V13.499z
						 M34.164,12.82c0-5.224-1.166-9.4-3.497-12.529S24.97-4.402,20.566-4.402c-2.049,0-3.836,0.431-5.357,1.295
						c-1.522,0.863-2.812,2.125-3.867,3.788l-0.779-4.405H2.568V46.78h9.421V27.582c1.015,1.402,2.228,2.481,3.643,3.237
						c1.412,0.755,3.037,1.133,4.872,1.133c4.445,0,7.834-1.679,10.164-5.034c2.331-3.356,3.497-7.83,3.497-13.419V12.82z"/>
				</g>
				<g id="g40" transform="translate(502.1562,472.1543)">
					<path id="path42" d="M24.743,13.5c1.641,0,3.107,0.409,4.402,1.229c1.295,0.82,2.18,1.77,2.656,2.849v4.953h-5.31
						c-2.007,0-3.523-0.497-4.548-1.488c-1.025-0.993-1.538-2.213-1.538-3.658c0-1.188,0.384-2.133,1.148-2.833
						C22.32,13.85,23.383,13.5,24.743,13.5 M33.387,7.186c-0.346,0.797-0.643,1.641-0.891,2.525c-0.249,0.885-0.428,1.79-0.535,2.72
						c-0.971-1.705-2.256-3.12-3.853-4.242s-3.497-1.683-5.698-1.683c-3.668,0-6.497,0.942-8.481,2.833
						c-1.985,1.888-2.978,4.462-2.978,7.721c0,3.431,1.321,6.091,3.965,7.979s6.501,2.833,11.574,2.833h5.31v2.783
						c0,1.685-0.444,2.99-1.329,3.917c-0.883,0.929-2.202,1.393-3.949,1.393c-1.532,0-2.714-0.372-3.543-1.116
						c-0.832-0.746-1.247-1.765-1.247-3.06h-9.098l-0.064,0.193c-0.152,2.958,1.138,5.509,3.869,7.657
						c2.729,2.147,6.296,3.222,10.701,3.222c4.207,0,7.611-1.058,10.213-3.173c2.6-2.115,3.901-5.147,3.901-9.097v-14.47
						c0-1.642,0.125-3.185,0.372-4.63s0.642-2.881,1.181-4.305H33.387z"/>
				</g>
				<g id="g44" transform="translate(534.4004,500.8687)">
					<path id="path46" d="M24.743,13.499l0.42-5.017c1.166,1.792,2.6,3.183,4.307,4.176c1.704,0.992,3.614,1.488,5.73,1.488
						c3.539,0,6.3-1.138,8.287-3.414c1.985-2.276,2.979-5.875,2.979-10.797v-21.463H36.98v21.431c0,2.503-0.437,4.279-1.311,5.326
						c-0.875,1.046-2.186,1.569-3.935,1.569c-1.402,0-2.638-0.264-3.706-0.792S26.08,4.748,25.39,3.82v-25.348h-9.453v35.027H24.743
						z"/>
				</g>
				<g id="g48" transform="translate(572.5664,482.3838)">
					<path id="path50" d="M24.743,13.499c0-3.064,0.513-5.477,1.538-7.235c1.024-1.761,2.703-2.64,5.033-2.64
						c1.446,0,2.672,0.265,3.674,0.794c1.005,0.529,1.809,1.301,2.413,2.314v15.183c-0.604,1.08-1.408,1.91-2.413,2.493
						c-1.002,0.582-2.206,0.873-3.608,0.873c-2.31,0-3.993-1.024-5.051-3.075s-1.586-4.727-1.586-8.029V13.499z M15.289,14.179
						c0,5.525,1.198,9.981,3.595,13.37c2.395,3.389,5.763,5.083,10.1,5.083c1.964,0,3.691-0.442,5.18-1.327
						c1.49-0.884,2.763-2.149,3.82-3.786l0.744,4.467h8.125V-2.882c0-4.554-1.488-8.077-4.466-10.57
						c-2.979-2.492-7.134-3.738-12.464-3.738c-1.77,0-3.647,0.243-5.634,0.728c-1.985,0.485-3.819,1.15-5.502,1.991l1.585,7.058
						c1.446-0.69,2.941-1.213,4.484-1.569c1.542-0.357,3.209-0.536,5.002-0.536c2.59,0,4.493,0.541,5.713,1.62
						s1.83,2.763,1.83,5.049v3.173c-1.036-1.315-2.256-2.32-3.658-3.01c-1.403-0.69-3.012-1.037-4.824-1.037
						c-4.295,0-7.641,1.576-10.036,4.727c-2.396,3.151-3.595,7.317-3.595,12.497V14.179z"/>
				</g>
				<g id="g52" transform="translate(624.1055,483.0635)">
					<path id="path54" d="M24.743,13.499c0,3.41-0.502,6.113-1.506,8.109c-1.003,1.995-2.714,2.994-5.131,2.994
						c-1.468,0-2.708-0.306-3.722-0.921c-1.015-0.617-1.813-1.496-2.396-2.64V6.215c0.583-1.058,1.387-1.865,2.411-2.427
						c1.027-0.561,2.282-0.842,3.772-0.842c2.439,0,4.144,0.86,5.115,2.575c0.973,1.715,1.458,4.148,1.458,7.299V13.499z
						 M34.164,12.82c0-5.224-1.166-9.4-3.497-12.529S24.97-4.402,20.565-4.402c-2.049,0-3.835,0.431-5.357,1.295
						c-1.522,0.863-2.811,2.125-3.867,3.788l-0.778-4.405H2.567V46.78h9.42V27.582c1.015,1.402,2.228,2.481,3.643,3.237
						c1.412,0.755,3.037,1.133,4.872,1.133c4.446,0,7.834-1.679,10.165-5.034c2.331-3.356,3.497-7.83,3.497-13.419V12.82z"/>
				</g>
				<g id="g56" transform="translate(652.6904,472.1543)">
					<path id="path58" d="M24.743,13.5c1.639,0,3.107,0.409,4.402,1.229c1.295,0.82,2.18,1.77,2.654,2.849v4.953h-5.309
						c-2.008,0-3.523-0.497-4.548-1.488c-1.025-0.993-1.538-2.213-1.538-3.658c0-1.188,0.384-2.133,1.15-2.833
						C22.32,13.85,23.382,13.5,24.743,13.5 M33.387,7.186c-0.346,0.797-0.643,1.641-0.892,2.525c-0.248,0.885-0.426,1.79-0.533,2.72
						c-0.971-1.705-2.256-3.12-3.853-4.242c-1.598-1.122-3.497-1.683-5.698-1.683c-3.669,0-6.497,0.942-8.481,2.833
						c-1.986,1.888-2.978,4.462-2.978,7.721c0,3.431,1.321,6.091,3.965,7.979c2.643,1.888,6.502,2.833,11.574,2.833h5.309v2.783
						c0,1.685-0.442,2.99-1.327,3.917c-0.885,0.929-2.202,1.393-3.949,1.393c-1.534,0-2.716-0.372-3.545-1.116
						c-0.831-0.746-1.247-1.765-1.247-3.06h-9.097l-0.064,0.193c-0.151,2.958,1.138,5.509,3.869,7.657
						c2.73,2.147,6.296,3.222,10.699,3.222c4.208,0,7.613-1.058,10.213-3.173c2.602-2.115,3.902-5.147,3.902-9.097v-14.47
						c0-1.642,0.123-3.185,0.372-4.63c0.248-1.446,0.642-2.881,1.181-4.305H33.387z"/>
				</g>
				<g id="g60" transform="translate(684.9336,500.8687)">
					<path id="path62" d="M24.743,13.499l0.42-5.017c1.166,1.792,2.6,3.183,4.307,4.176c1.704,0.992,3.614,1.488,5.73,1.488
						c3.539,0,6.3-1.138,8.287-3.414c1.985-2.276,2.979-5.875,2.979-10.797v-21.463H36.98v21.431c0,2.503-0.437,4.279-1.311,5.326
						c-0.875,1.046-2.186,1.569-3.935,1.569c-1.402,0-2.638-0.264-3.706-0.792S26.08,4.748,25.39,3.82v-25.348h-9.453v35.027H24.743
						z"/>
				</g>
				<g id="g64" transform="translate(721.7744,482.3838)">
					<path id="path66" d="M24.743,13.499c0-3.064,0.513-5.477,1.538-7.235c1.025-1.761,2.703-2.64,5.035-2.64
						c1.446,0,2.67,0.265,3.674,0.794S36.797,5.72,37.4,6.733v15.183c-0.604,1.08-1.408,1.91-2.411,2.493
						c-1.003,0.582-2.208,0.873-3.609,0.873c-2.31,0-3.993-1.024-5.051-3.075s-1.586-4.727-1.586-8.029V13.499z M15.29,14.179
						c0,5.525,1.198,9.981,3.593,13.37c2.395,3.389,5.763,5.083,10.1,5.083c1.964,0,3.691-0.442,5.18-1.327
						c1.49-0.884,2.764-2.149,3.82-3.786l0.744,4.467h8.127V-2.882c0-4.554-1.49-8.077-4.468-10.57
						c-2.979-2.492-7.132-3.738-12.464-3.738c-1.77,0-3.647,0.243-5.632,0.728s-3.82,1.15-5.503,1.991l1.586,7.058
						c1.444-0.69,2.94-1.213,4.482-1.569c1.544-0.357,3.211-0.536,5.002-0.536c2.59,0,4.494,0.541,5.714,1.62
						C36.791-6.819,37.4-5.136,37.4-2.85v3.173c-1.036-1.315-2.256-2.32-3.658-3.01c-1.403-0.69-3.01-1.037-4.822-1.037
						c-4.295,0-7.642,1.576-10.037,4.727S15.29,8.32,15.29,13.499V14.179z"/>
				</g>
			</g>
		</g>
	</g>
</g>
</svg>
